<?xml version="1.0" encoding="utf-8"?>
<!-- Generator: Adobe Illustrator 24.0.1, SVG Export Plug-In . SVG Version: 6.00 Build 0)  -->
<svg version="1.1" xmlns="http://www.w3.org/2000/svg" xmlns:xlink="http://www.w3.org/1999/xlink" x="0px" y="0px"
	 viewBox="0 0 693.9 273" style="enable-background:new 0 0 693.9 273;" xml:space="preserve">
<style type="text/css">
	.st0{fill:none;stroke:#FFFFFF;stroke-width:3;stroke-miterlimit:10;}
	.st1{fill:#FFFFFF;}
	.st2{fill:#F8663F;stroke:#FFFFFF;stroke-width:4;stroke-miterlimit:10;}
	.st3{fill:#F8663F;}
	.st4{fill:#F8663F;stroke:#FFFFFF;stroke-width:7;stroke-miterlimit:10;}
</style>
<g id="BACKGROUND">
</g>
<g id="OBJECTS">
	<g>
		<g>
			<path class="st0" d="M188.8,15.4c0-2.8,1-5.2,2.9-7.1c2-2,4.3-2.9,7.1-2.9c2.7,0,5.1,1,7.1,2.9c2,2,2.9,4.3,2.9,7.1v153.8
				c0,27-9.7,50.2-29,69.5c-19.2,19.2-42.3,28.8-69.5,28.8c-27,0-50.2-9.6-69.5-28.8c-19.2-19.3-28.8-42.5-28.8-69.5V15.4
				c0-2.8,1-5.2,2.9-7.1c2-2,4.3-2.9,7.1-2.9s5.2,1,7.1,2.9c2,2,2.9,4.3,2.9,7.1v153.8c0,21.5,7.6,39.9,22.9,55.2
				c15.3,15.3,33.7,22.9,55.2,22.9c21.6,0,40.1-7.6,55.4-22.9"/>
		</g>
		<g>
			<path class="st1" d="M462.8,103.7c13.7-3.8,26.6-8.7,39.1-15.6c1.7-0.9,3.1-1.9,4.7-3.1c0.2-0.2,0.9-0.7,1.4-0.9h0.5
				c0.2,0,0.5,0.2,0.7,0.5c0.2,0,0.2,0.2,0.2,0.5s0,0.2-0.2,0.5c-0.5,0.7-0.9,1.2-1.4,1.4c-2.4,1.9-4.9,3.5-7.8,5
				c-11.8,6.4-24.3,11.3-37.3,15.3c-2.4,0.9-4.9,1.4-7.5,1.4c-6.8,0-11.3-4.5-11.3-11.3v-1.4c0.2-3.3,1.2-6.6,2.6-9.7
				c1.9-4.2,4.2-8.3,6.8-12.3c0.7-0.7,1.2-1.4,1.7-1.9c0.9-0.9,1.9-1.4,2.6-1.4s1.4,0.2,2.1,0.7c1.4,0.9,1.9,1.9,1.9,3.1
				c0,0.5,0,1.2-0.2,1.6c-0.5,1.7-1.4,3.1-2.1,4.7c-2.1,3.8-4.2,7.5-5.9,11.3c-0.9,1.9-1.6,3.8-2.1,5.7c-0.2,0.7-0.2,1.4-0.2,2.1
				c0,2.8,1.7,4.5,5.4,4.5h1.9C460,104.4,461.4,104.1,462.8,103.7z M462.1,56.3c1.9-5.7,4-11.3,6.8-16.7c0.5-0.9,0.9-1.7,1.6-2.4
				c0.7-0.9,1.7-1.4,2.8-1.4c0.5,0,1.2,0,1.9,0.5c1.2,0.7,1.7,1.9,1.7,3.1c0,0.5,0,1.2-0.2,1.7c-0.9,2.1-2.4,3.8-3.5,5.7
				c-1.9,2.8-3.8,5.9-5.4,9c-0.2,0.5-0.5,1.2-0.5,1.9v1.4c0,1.7-0.9,2.8-2.6,2.8h-0.5c-1.7,0-2.6-1.4-2.6-3.5
				C461.9,57.7,461.9,57,462.1,56.3z"/>
			<path class="st1" d="M577.4,69.8c-0.5,0-0.7,0-1.2,0.2c-7.3,1.2-14.3,3.2-21.4,5.1c-7.3,1.9-14.6,3.6-21.9,3.9
				c-1.5,0.2-1.7,0.2-1.7,1v1c0.2,1,0.2,2.2,0.2,3.2c0,5.4-1.9,10.2-4.9,14.8c-1.9,2.9-4.4,5.6-7.3,7.8c-2.7,1.9-5.6,3.4-9,3.4
				c-0.7,0-1.5,0-2.2-0.2c-3.4-0.7-6.1-2.9-7.5-6.1c-0.7-2.2-1.2-4.1-1.2-6.1c0-2.9,0.7-5.6,1.9-8c2.2-4.4,5.4-7.5,9.5-10
				c1.5-1,2.9-1.5,4.9-1.5h1c1.7,0.2,2.9,1,3.9,2.4c0.2,0.5,0.2,0.7,0.2,1.2c0,1-0.7,1.9-1.9,2.2c-7.1,1.5-10,6.6-12.2,12.6
				c-0.2,0.7-0.2,1.5-0.2,2.4s0,1.9,0.5,2.9c0.7,2.2,2.2,3.2,4.1,3.2h0.7c2.2-0.5,3.9-1.2,5.6-2.7c4.6-3.4,7.8-7.8,9.2-13.4
				c0.5-1.5,0.5-2.7,0.5-3.9s0-2.7-0.5-3.9c-0.2-1.5-1-2.7-2.2-3.9c-0.7-0.5-1-1.2-1-1.7c0-0.5,0.2-1,0.5-1.2c0.5-0.5,1-1,1.7-1
				c0.5,0,1,0.2,1.5,0.5c0.2,0,0.2,0,0.2,0.2c1.9,1.9,4.1,2.4,6.6,2.4c1.7,0,3.6-0.2,5.6-0.5c9.2-0.7,17.8-3.9,26.5-6.8
				c3.9-1.2,7.5-2.7,11.4-3.9l2.9-0.7h0.7c2.7,0,4.6,1.9,4.6,4.4v1.2c-0.2,1-0.5,2.2-1,3.2c-1.5,3.4-3.2,6.8-4.9,10
				c-4.6,9.5-9.2,19-13.1,28.7c-0.5,0.7-1,1.9-1,3.2v0.5c1.5-0.5,2.4-1.5,3.4-2.2c4.1-3.9,7.8-8,11.2-12.2
				c9.5-11.2,19.5-21.9,30.4-31.6c2.9-2.7,5.8-5.1,9-7.3c2.4-1.7,4.9-3.2,7.5-3.9c1-0.2,1.7-0.2,2.4-0.2c2.9,0,5.1,1.7,5.8,5.1
				c0.5,1.9,0.5,3.9,0.5,6.1c0,2.7,0,5.4,0.2,8.3c1,6.1,4.6,9.7,10,12.2c3.2,1.2,6.6,1.9,10.2,2.2h3.6c6.3,0,12.9-0.5,19.2-1.7
				c2.9-0.7,5.8-1.5,8.5-2.9c0.2-0.2,0.7-0.2,1.2-0.5c0.2,0,0.7,0,1,0.5v0.5c0,0.2,0,0.2-0.2,0.5c-0.5,0.7-1.5,1.2-2.2,1.7
				c-2.7,1.2-5.4,1.9-8,2.4c-6.8,1.5-13.9,2.4-20.7,2.4c-1.9,0-3.6-0.2-5.4-0.2c-5.6-0.2-10.5-1.9-14.8-5.4
				c-3.6-2.7-5.8-6.3-7.1-10.7c-0.5-2.9-1-5.8-1-8.5v-5.1c0-1.9-0.5-2.7-1.7-2.7c-0.5,0-1,0-1.5,0.2c-2.4,0.7-4.6,1.9-6.6,3.4
				c-7.3,5.1-13.9,10.7-20.2,16.8c-8.8,8.5-16.5,18-24.6,27.2c-1.7,2.2-3.4,4.1-5.4,6.1c-1.5,1.7-3.2,3.2-5.1,3.9
				c-0.7,0.2-1.2,0.2-1.7,0.2c-2.2,0-4.1-1.5-4.6-3.6v-3.9c1-5.8,3.2-11.2,5.6-16.5c3.9-8,8-16.1,12.4-23.8c0.5-1,1.2-1.7,1.2-2.7
				C578.2,69.8,577.9,69.8,577.4,69.8z"/>
			<path class="st2" d="M262.3,59.8c-0.8,0-1.2,0-2,0.4c-11.9,2-23.5,5.2-35,8.4c-11.9,3.2-23.9,6-35.8,6.4
				c-2.4,0.4-2.8,0.4-2.8,1.6v1.6c0.4,1.6,0.4,3.6,0.4,5.2c0,8.8-3.2,16.7-8,24.3c-3.2,4.8-7.2,9.2-11.9,12.7
				c-4.4,3.2-9.2,5.6-14.7,5.6c-1.2,0-2.4,0-3.6-0.4c-5.6-1.2-10-4.8-12.3-10c-1.2-3.6-2-6.8-2-10c0-4.8,1.2-9.2,3.2-13.1
				c3.6-7.2,8.8-12.3,15.5-16.3c2.4-1.6,4.8-2.4,8-2.4h1.6c2.8,0.4,4.8,1.6,6.4,4c0.4,0.8,0.4,1.2,0.4,2c0,1.6-1.2,3.2-3.2,3.6
				c-11.5,2.4-16.3,10.8-19.9,20.7c-0.4,1.2-0.4,2.4-0.4,4s0,3.2,0.8,4.8c1.2,3.6,3.6,5.2,6.8,5.2h1.2c3.6-0.8,6.4-2,9.2-4.4
				c7.6-5.6,12.7-12.7,15.1-21.9c0.8-2.4,0.8-4.4,0.8-6.4s0-4.4-0.8-6.4c-0.4-2.4-1.6-4.4-3.6-6.4c-1.2-0.8-1.6-2-1.6-2.8
				c0-0.8,0.4-1.6,0.8-2c0.8-0.8,1.6-1.6,2.8-1.6c0.8,0,1.6,0.4,2.4,0.8c0.4,0,0.4,0,0.4,0.4c3.2,3.2,6.8,4,10.7,4
				c2.8,0,6-0.4,9.2-0.8c15.1-1.2,29.1-6.4,43.4-11.1c6.4-2,12.3-4.4,18.7-6.4l4.8-1.2h1.2c4.4,0,7.6,3.2,7.6,7.2v2
				c-0.4,1.6-0.8,3.6-1.6,5.2c-2.4,5.6-5.2,11.1-8,16.3c-7.6,15.5-15.1,31.1-21.5,47c-0.8,1.2-1.6,3.2-1.6,5.2v0.8
				c2.4-0.8,4-2.4,5.6-3.6c6.8-6.4,12.7-13.1,18.3-19.9c15.5-18.3,31.8-35.8,49.8-51.7c4.8-4.4,9.5-8.4,14.7-11.9
				c4-2.8,8-5.2,12.3-6.4c1.6-0.4,2.8-0.4,4-0.4c4.8,0,8.4,2.8,9.6,8.4c0.8,3.2,0.8,6.4,0.8,10c0,4.4,0,8.8,0.4,13.5
				c1.6,10,7.6,15.9,16.3,19.9c5.2,2,10.8,3.2,16.7,3.6h6c10.3,0,21.1-0.8,31.4-2.8c4.8-1.2,9.6-2.4,13.9-4.8c0.4-0.4,1.2-0.4,2-0.8
				c0.4,0,1.2,0,1.6,0.8v0.8c0,0.4,0,0.4-0.4,0.8c-0.8,1.2-2.4,2-3.6,2.8c-4.4,2-8.8,3.2-13.1,4c-11.1,2.4-22.7,4-33.8,4
				c-3.2,0-6-0.4-8.8-0.4c-9.2-0.4-17.1-3.2-24.3-8.8c-6-4.4-9.6-10.3-11.5-17.5c-0.8-4.8-1.6-9.6-1.6-13.9v-8.4
				c0-3.2-0.8-4.4-2.8-4.4c-0.8,0-1.6,0-2.4,0.4c-4,1.2-7.6,3.2-10.8,5.6c-11.9,8.4-22.7,17.5-33,27.5
				c-14.3,13.9-27.1,29.5-40.2,44.6c-2.8,3.6-5.6,6.8-8.8,10c-2.4,2.8-5.2,5.2-8.4,6.4c-1.2,0.4-2,0.4-2.8,0.4c-3.6,0-6.8-2.4-7.6-6
				v-6.4c1.6-9.6,5.2-18.3,9.2-27.1c6.4-13.1,13.1-26.3,20.3-39c0.8-1.6,2-2.8,2-4.4C263.5,59.8,263.1,59.8,262.3,59.8z"/>
		</g>
		<circle class="st3" cx="163.9" cy="225.7" r="5.3"/>
		<circle class="st4" cx="77.7" cy="98.9" r="31.1"/>
		<circle class="st3" cx="187.6" cy="21" r="5.3"/>
	</g>
</g>
</svg>
