<svg id="Layer_1" data-name="Layer 1" xmlns="http://www.w3.org/2000/svg" xmlns:xlink="http://www.w3.org/1999/xlink" width="16.9cm" height="6.6cm" viewBox="0 0 479.2 187.7">
  <defs>
    <style>
      .cls-1 {
        fill: none;
        stroke: #2ea9aa;
        stroke-miterlimit: 10;
        stroke-width: 3px;
      }

      .cls-2 {
        fill: #ee902b;
      }

      .cls-3 {
        fill: url(#linear-gradient);
      }
    </style>
    <linearGradient id="linear-gradient" x1="501.75" y1="519.4" x2="636.05" y2="519.4" gradientTransform="matrix(1, 0, 0, -1, -90.9, 797.71)" gradientUnits="userSpaceOnUse">
      <stop offset="0" stop-color="#426169"/>
      <stop offset="1" stop-color="#405f66"/>
    </linearGradient>
  </defs>
  <path class="cls-1" d="M191.9,225.8a7.9,7.9,0,0,1,2-5,7.3,7.3,0,0,1,10.2.2,6.7,6.7,0,0,1,2,4.8V334.2q0,28.8-20.4,49c-13.6,13.6-29.9,20.3-49,20.3s-35.4-6.8-49-20.3-20.3-29.9-20.3-49V225.8a7.3,7.3,0,0,1,8-6.3,7,7,0,0,1,6.3,6.3V334.2c0,15.2,5.3,28.2,16.1,38.9s23.7,16.2,38.9,16.2a52.5,52.5,0,0,0,39-16.2" transform="translate(-65.9 -217.3)"/>
  <g>
    <path class="cls-2" d="M385,288.1a129.3,129.3,0,0,0,27.6-11c1.1-.7,2.1-1.3,3.3-2.2l1-.6h.3c.3,0,.5.2.5.3s.2.2.2.3,0,.2-.2.4a1.7,1.7,0,0,1-1,1,24,24,0,0,1-5.5,3.4A136.3,136.3,0,0,1,385,290.5a11.7,11.7,0,0,1-5.3,1c-4.8,0-8-3.1-8-7.9v-1a20.8,20.8,0,0,1,1.8-6.8,92.5,92.5,0,0,1,4.9-8.7l1.1-1.3a3.2,3.2,0,0,1,1.9-1l1.5.5a2.4,2.4,0,0,1,1.3,2.1,1.6,1.6,0,0,1-.2,1.2,9.9,9.9,0,0,1-1.5,3.3,86.8,86.8,0,0,0-4.1,8,21.2,21.2,0,0,0-1.4,4,2.6,2.6,0,0,0-.2,1.5c0,2,1.2,3.2,3.8,3.2h1.3A8.4,8.4,0,0,0,385,288.1Zm-.5-33.4a85.8,85.8,0,0,1,4.8-11.8,6.6,6.6,0,0,1,1.2-1.7,2.8,2.8,0,0,1,2-1,2.5,2.5,0,0,1,1.3.3,2.4,2.4,0,0,1,1.2,2.2,1.6,1.6,0,0,1-.2,1.2c-.7,1.4-1.7,2.6-2.5,3.9s-2.6,4.2-3.8,6.4a3.1,3.1,0,0,0-.3,1.3v1a1.8,1.8,0,0,1-1.7,2H386c-1.2,0-1.8-1-1.8-2.5Z" transform="translate(-65.9 -217.3)"/>
    <path class="cls-3" d="M465.8,264.2l-.9.2c-5,1-10.1,2.2-15.1,3.6a66.3,66.3,0,0,1-15.4,2.7c-1,.2-1.2.2-1.2.7v.7a5.7,5.7,0,0,1,.2,2.2,19.6,19.6,0,0,1-3.4,10.5,20.2,20.2,0,0,1-5.1,5.4,9.9,9.9,0,0,1-6.4,2.4h-1.6a7.9,7.9,0,0,1-5.3-4.3,19.3,19.3,0,0,1-.8-4.3,16.3,16.3,0,0,1,1.3-5.7,18.8,18.8,0,0,1,6.7-7,7.4,7.4,0,0,1,3.5-1h.6a4.1,4.1,0,0,1,2.8,1.7,1,1,0,0,1,.2.9,1.6,1.6,0,0,1-1.4,1.5c-5,1-7,4.6-8.6,8.9a11.1,11.1,0,0,0-.2,1.7,4.6,4.6,0,0,0,.4,2.1,2.9,2.9,0,0,0,2.9,2.2h.5a6.8,6.8,0,0,0,4-1.9A16.9,16.9,0,0,0,430,278a12.8,12.8,0,0,0,0-5.5,4.5,4.5,0,0,0-1.6-2.7,2,2,0,0,1-.7-1.2,3.6,3.6,0,0,1,.4-.9,2.9,2.9,0,0,1,1.2-.7,2.3,2.3,0,0,1,1,.4c.2,0,.2,0,.2.2a6.2,6.2,0,0,0,4.6,1.7,16.1,16.1,0,0,0,3.9-.4c6.6-.5,12.6-2.7,18.7-4.8,2.8-.8,5.3-1.9,8.1-2.7l2-.5h.6a3.1,3.1,0,0,1,3.2,3h0v.8a5.2,5.2,0,0,1-.7,2.2c-1,2.4-2.2,4.8-3.4,7.1-3.3,6.6-6.5,13.3-9.3,20.2a9,9,0,0,0-.6,2.2v.4a7.8,7.8,0,0,0,2.4-1.6,57.7,57.7,0,0,0,7.8-8.6,237.4,237.4,0,0,1,21.5-22.2,79.1,79.1,0,0,1,6.3-5.2,17.7,17.7,0,0,1,5.3-2.7l1.7-.2c2.1,0,3.6,1.2,4.1,3.6a12.8,12.8,0,0,1,.4,4.3c0,2,.1,3.9.2,5.8.6,4.3,3.2,6.9,7,8.6a23.2,23.2,0,0,0,7.2,1.5h2.6a60.6,60.6,0,0,0,13.5-1.2,21.2,21.2,0,0,0,6-2c.2-.2.5-.2.8-.4s.6,0,.7.4v.3c.1.2,0,.3-.1.4a4.8,4.8,0,0,1-1.6,1.2,21.4,21.4,0,0,1-5.6,1.7,64.1,64.1,0,0,1-14.6,1.7l-3.8-.2a17.5,17.5,0,0,1-10.4-3.8,13.1,13.1,0,0,1-5-7.5,54.8,54.8,0,0,1-.7-6v-3.6c0-1.4-.3-1.9-1.2-1.9l-1,.2a20.2,20.2,0,0,0-4.6,2.4,133.7,133.7,0,0,0-14.3,11.8c-6.1,6-11.6,12.7-17.3,19.2a30,30,0,0,1-3.7,4.3,8.8,8.8,0,0,1-3.6,2.7,3.3,3.3,0,0,1-4.3-1.9l-.2-.5v-2.8A55.5,55.5,0,0,1,457,283c2.8-5.6,5.7-11.3,8.8-16.7.3-.7.8-1.2.8-1.9Z" transform="translate(-65.9 -217.3)"/>
    <path class="cls-2" d="M243.7,257.1l-1.4.3c-8.3,1.6-16.5,3.6-24.7,5.9s-16.8,4.2-25.3,4.5c-1.7.3-1.9.3-1.9,1.1v1.2a14.5,14.5,0,0,1,.2,3.6c0,6.2-2.2,11.8-5.6,17.1a31.3,31.3,0,0,1-8.4,9c-3.1,2.2-6.4,3.9-10.4,3.9a5.5,5.5,0,0,1-2.5-.3,11.9,11.9,0,0,1-8.7-7,20.7,20.7,0,0,1-1.3-7,19.9,19.9,0,0,1,2.3-9.2,26.3,26.3,0,0,1,10.9-11.5,9.8,9.8,0,0,1,5.6-1.7h1.1a6.1,6.1,0,0,1,4.5,2.8,3.9,3.9,0,0,1,.3,1.4,2.6,2.6,0,0,1-2.2,2.5c-8.2,1.7-11.5,7.6-14.1,14.6a6.9,6.9,0,0,0-.3,2.8,6.5,6.5,0,0,0,.6,3.4c.9,2.5,2.5,3.6,4.8,3.6h.8a14,14,0,0,0,6.5-3.1,27.1,27.1,0,0,0,10.6-15.4,16.3,16.3,0,0,0,.6-4.5,17.4,17.4,0,0,0-.6-4.5,8.1,8.1,0,0,0-2.5-4.5,2.1,2.1,0,0,1-1.1-1.9,1.6,1.6,0,0,1,.6-1.4,2.8,2.8,0,0,1,1.9-1.2,5.8,5.8,0,0,1,1.7.6c.3,0,.3,0,.3.3a9.7,9.7,0,0,0,7.6,2.8,35.5,35.5,0,0,0,6.4-.6c10.7-.8,20.5-4.5,30.6-7.8,4.5-1.4,8.7-3.1,13.2-4.5l3.3-.9h.9a5,5,0,0,1,5.2,4.9.3.3,0,0,0,.1.2V258a18.9,18.9,0,0,1-1.1,3.6c-1.7,4-3.7,7.9-5.6,11.5-5.4,11-10.7,21.9-15.2,33.1a7.2,7.2,0,0,0-1.1,3.7v.6a12.1,12.1,0,0,0,3.9-2.6,121.5,121.5,0,0,0,12.8-14,378.8,378.8,0,0,1,35.2-36.5,104.7,104.7,0,0,1,10.3-8.4,32.7,32.7,0,0,1,8.7-4.5l2.8-.3c3.4,0,5.9,2,6.7,5.9a23.8,23.8,0,0,1,.7,7c0,3.1,0,6.2.3,9.6,1.1,7,5.3,11.2,11.5,14a33.7,33.7,0,0,0,11.8,2.5h4.2a109.4,109.4,0,0,0,22.1-1.9c3.4-.9,6.8-1.7,9.8-3.4.3-.3.9-.3,1.5-.6a1.4,1.4,0,0,1,1.1.6v.6c0,.2,0,.2-.3.5a9.2,9.2,0,0,1-2.5,2,39.7,39.7,0,0,1-9.3,2.8,106.7,106.7,0,0,1-23.8,2.8c-2.3,0-4.2-.3-6.2-.3a27.7,27.7,0,0,1-17.1-6.1,21.6,21.6,0,0,1-8.2-12.4,63.9,63.9,0,0,1-1.1-9.8v-5.9c0-2.2-.5-3.1-1.9-3.1a4.7,4.7,0,0,0-1.7.3,24.9,24.9,0,0,0-7.6,3.9,198.1,198.1,0,0,0-23.3,19.4c-10.2,9.8-19.2,20.7-28.3,31.4-2,2.5-4.1,4.8-6.2,7a14.4,14.4,0,0,1-5.9,4.5,3.6,3.6,0,0,1-2,.3,5.2,5.2,0,0,1-5.3-4.2v-4.5c1.1-6.7,3.7-12.9,6.5-19.1,4.5-9.3,9.2-18.5,14.3-27.5.5-1.1,1.4-2,1.4-3.1A4,4,0,0,0,243.7,257.1Z" transform="translate(-65.9 -217.3)"/>
  </g>
  <circle class="cls-2" cx="108.7" cy="156.7" r="3.7"/>
  <circle class="cls-2" cx="47.7" cy="67.3" r="21.9"/>
  <circle class="cls-2" cx="126.1" cy="9.6" r="3.7"/>
</svg>
