<?xml version="1.0" encoding="utf-8"?>
<!-- Generator: Adobe Illustrator 25.0.1, SVG Export Plug-In . SVG Version: 6.00 Build 0)  -->
<svg version="1.1" xmlns="http://www.w3.org/2000/svg" xmlns:xlink="http://www.w3.org/1999/xlink" x="0px" y="0px"
	 viewBox="0 0 750 500" style="enable-background:new 0 0 750 500;" xml:space="preserve">
<style type="text/css">
	.st0{fill:none;stroke:url(#SVGID_1_);stroke-width:3;stroke-miterlimit:10;}
	.st1{fill:#F8663F;}
	.st2{fill:url(#SVGID_2_);}
</style>
<g id="BACKGROUND">
</g>
<g id="OBJECTS">
	<g>
		<g>
			<linearGradient id="SVGID_1_" gradientUnits="userSpaceOnUse" x1="50.6111" y1="266.4492" x2="250.3249" y2="266.4492">
				<stop  offset="0" style="stop-color:#436169"/>
				<stop  offset="1" style="stop-color:#415F66"/>
			</linearGradient>
			<path class="st0" d="M228.66,145.45c0-2.81,0.98-5.19,2.93-7.15c1.95-1.95,4.34-2.93,7.15-2.93c2.69,0,5.07,0.98,7.15,2.93
				c1.95,1.96,2.93,4.34,2.93,7.15v153.81c0,27.01-9.65,50.17-28.97,69.48c-19.19,19.19-42.35,28.78-69.48,28.78
				c-27.01,0-50.17-9.59-69.48-28.78c-19.19-19.31-28.78-42.47-28.78-69.48V145.45c0-2.81,0.98-5.19,2.93-7.15
				c1.95-1.95,4.34-2.93,7.15-2.93s5.2,0.98,7.15,2.93c1.95,1.96,2.93,4.34,2.93,7.15v153.81c0,21.51,7.64,39.91,22.92,55.18
				c15.28,15.28,33.67,22.92,55.18,22.92c21.63,0,40.09-7.64,55.37-22.92"/>
		</g>
		<g>
			<path class="st1" d="M502.69,233.74c13.68-3.77,26.64-8.73,39.14-15.56c1.65-0.94,3.07-1.88,4.72-3.06
				c0.23-0.23,0.94-0.71,1.41-0.94h0.47c0.23,0,0.47,0.23,0.7,0.47c0.24,0,0.24,0.24,0.24,0.47s0,0.23-0.24,0.47
				c-0.47,0.71-0.94,1.18-1.41,1.41c-2.36,1.89-4.95,3.54-7.78,4.95c-11.79,6.36-24.28,11.31-37.25,15.32
				c-2.36,0.94-4.95,1.41-7.54,1.41c-6.84,0-11.32-4.48-11.32-11.32v-1.41c0.23-3.3,1.18-6.6,2.59-9.66
				c1.89-4.25,4.25-8.25,6.84-12.26c0.71-0.7,1.18-1.41,1.65-1.88c0.94-0.94,1.88-1.42,2.59-1.42s1.41,0.24,2.12,0.71
				c1.41,0.94,1.88,1.89,1.88,3.07c0,0.47,0,1.18-0.23,1.65c-0.47,1.65-1.41,3.07-2.12,4.72c-2.12,3.77-4.24,7.55-5.89,11.32
				c-0.94,1.89-1.65,3.77-2.12,5.66c-0.23,0.7-0.23,1.41-0.23,2.12c0,2.83,1.65,4.48,5.42,4.48h1.89
				C499.86,234.44,501.27,234.21,502.69,233.74z M501.98,186.35c1.88-5.66,4.01-11.32,6.84-16.74c0.47-0.94,0.94-1.65,1.65-2.36
				c0.71-0.94,1.65-1.42,2.83-1.42c0.47,0,1.18,0,1.88,0.47c1.18,0.7,1.65,1.88,1.65,3.06c0,0.47,0,1.18-0.24,1.65
				c-0.94,2.12-2.36,3.77-3.54,5.66c-1.88,2.83-3.77,5.89-5.42,8.96c-0.24,0.47-0.47,1.18-0.47,1.89v1.41
				c0,1.65-0.94,2.83-2.59,2.83h-0.47c-1.65,0-2.6-1.41-2.6-3.54C501.75,187.76,501.75,187.05,501.98,186.35z"/>
			<linearGradient id="SVGID_2_" gradientUnits="userSpaceOnUse" x1="539.264" y1="219.7056" x2="729.907" y2="219.7056">
				<stop  offset="0" style="stop-color:#436169"/>
				<stop  offset="1" style="stop-color:#415F66"/>
			</linearGradient>
			<path class="st2" d="M617.32,199.89c-0.49,0-0.73,0-1.22,0.25c-7.29,1.22-14.35,3.16-21.4,5.11c-7.29,1.94-14.59,3.65-21.88,3.89
				c-1.46,0.24-1.7,0.24-1.7,0.97v0.97c0.24,0.97,0.24,2.19,0.24,3.16c0,5.35-1.94,10.22-4.86,14.84c-1.94,2.92-4.37,5.59-7.29,7.78
				c-2.67,1.95-5.59,3.41-8.99,3.41c-0.73,0-1.46,0-2.19-0.24c-3.41-0.73-6.08-2.92-7.54-6.08c-0.73-2.19-1.22-4.14-1.22-6.08
				c0-2.92,0.73-5.59,1.94-8.03c2.19-4.38,5.35-7.54,9.48-9.97c1.46-0.97,2.92-1.46,4.86-1.46h0.97c1.7,0.24,2.92,0.97,3.89,2.43
				c0.24,0.48,0.24,0.73,0.24,1.22c0,0.97-0.73,1.94-1.94,2.18c-7.05,1.46-9.97,6.57-12.16,12.65c-0.25,0.73-0.25,1.46-0.25,2.43
				c0,0.97,0,1.95,0.49,2.92c0.73,2.19,2.19,3.16,4.13,3.16h0.73c2.19-0.48,3.89-1.22,5.59-2.67c4.62-3.41,7.78-7.78,9.24-13.37
				c0.49-1.46,0.49-2.68,0.49-3.89c0-1.22,0-2.67-0.49-3.89c-0.24-1.46-0.97-2.67-2.19-3.89c-0.73-0.49-0.97-1.22-0.97-1.7
				c0-0.48,0.24-0.97,0.48-1.22c0.48-0.48,0.97-0.97,1.7-0.97c0.49,0,0.97,0.24,1.46,0.48c0.24,0,0.24,0,0.24,0.24
				c1.95,1.95,4.13,2.43,6.56,2.43c1.7,0,3.65-0.24,5.59-0.48c9.24-0.73,17.75-3.89,26.5-6.81c3.89-1.22,7.54-2.67,11.43-3.89
				l2.92-0.73h0.73c2.67,0,4.62,1.95,4.62,4.38v1.22c-0.25,0.97-0.49,2.19-0.97,3.16c-1.46,3.4-3.16,6.81-4.86,9.97
				c-4.62,9.48-9.24,18.97-13.13,28.69c-0.49,0.73-0.97,1.95-0.97,3.16v0.48c1.46-0.48,2.43-1.46,3.41-2.19
				c4.13-3.89,7.78-8.03,11.18-12.16c9.48-11.18,19.45-21.88,30.4-31.61c2.92-2.68,5.83-5.11,8.99-7.3c2.43-1.7,4.86-3.16,7.54-3.89
				c0.97-0.24,1.7-0.24,2.43-0.24c2.92,0,5.11,1.7,5.84,5.11c0.49,1.95,0.49,3.89,0.49,6.08c0,2.68,0,5.35,0.24,8.27
				c0.97,6.08,4.62,9.73,9.97,12.16c3.16,1.22,6.57,1.95,10.22,2.19H700c6.32,0,12.89-0.48,19.21-1.7c2.92-0.73,5.84-1.46,8.51-2.92
				c0.24-0.24,0.73-0.24,1.22-0.48c0.24,0,0.73,0,0.97,0.48v0.49c0,0.24,0,0.24-0.24,0.48c-0.49,0.73-1.46,1.22-2.19,1.7
				c-2.67,1.22-5.35,1.94-8.03,2.43c-6.81,1.46-13.86,2.43-20.67,2.43c-1.95,0-3.65-0.24-5.35-0.24
				c-5.59-0.25-10.45-1.95-14.83-5.35c-3.65-2.67-5.84-6.32-7.05-10.7c-0.48-2.92-0.97-5.84-0.97-8.51v-5.11
				c0-1.95-0.48-2.68-1.7-2.68c-0.49,0-0.97,0-1.46,0.25c-2.43,0.73-4.62,1.94-6.57,3.41c-7.29,5.11-13.86,10.69-20.18,16.78
				c-8.75,8.51-16.54,17.99-24.56,27.23c-1.7,2.19-3.41,4.14-5.35,6.08c-1.46,1.7-3.16,3.16-5.11,3.89
				c-0.73,0.24-1.22,0.24-1.7,0.24c-2.19,0-4.14-1.46-4.62-3.65v-3.89c0.97-5.84,3.16-11.19,5.59-16.54
				c3.89-8.03,8.03-16.05,12.4-23.83c0.48-0.97,1.22-1.7,1.22-2.67C618.05,199.89,617.8,199.89,617.32,199.89z"/>
			<path class="st1" d="M302.17,189.88c-0.8,0-1.2,0-1.99,0.4c-11.94,1.99-23.49,5.17-35.03,8.36c-11.94,3.18-23.88,5.97-35.83,6.37
				c-2.39,0.4-2.79,0.4-2.79,1.59v1.59c0.4,1.59,0.4,3.58,0.4,5.17c0,8.76-3.18,16.72-7.96,24.29c-3.18,4.77-7.16,9.15-11.94,12.73
				c-4.38,3.19-9.15,5.57-14.73,5.57c-1.2,0-2.39,0-3.58-0.4c-5.57-1.2-9.95-4.78-12.34-9.95c-1.2-3.58-1.99-6.77-1.99-9.95
				c0-4.78,1.19-9.16,3.18-13.14c3.58-7.17,8.76-12.34,15.53-16.32c2.39-1.59,4.78-2.39,7.96-2.39h1.59
				c2.78,0.4,4.77,1.59,6.37,3.98c0.4,0.79,0.4,1.19,0.4,1.99c0,1.59-1.19,3.18-3.18,3.58c-11.55,2.39-16.33,10.75-19.9,20.7
				c-0.4,1.2-0.4,2.39-0.4,3.98c0,1.59,0,3.19,0.8,4.77c1.19,3.58,3.58,5.18,6.76,5.18h1.2c3.58-0.79,6.37-1.99,9.16-4.38
				c7.56-5.57,12.73-12.74,15.12-21.89c0.8-2.39,0.8-4.38,0.8-6.38s0-4.38-0.8-6.37c-0.4-2.39-1.59-4.38-3.58-6.37
				c-1.19-0.8-1.59-1.99-1.59-2.79c0-0.79,0.4-1.59,0.79-1.99c0.79-0.79,1.59-1.59,2.78-1.59c0.8,0,1.59,0.4,2.39,0.79
				c0.4,0,0.4,0,0.4,0.4c3.19,3.19,6.76,3.98,10.74,3.98c2.79,0,5.97-0.4,9.16-0.79c15.13-1.2,29.06-6.37,43.39-11.15
				c6.37-1.99,12.35-4.38,18.71-6.37l4.77-1.2h1.2c4.38,0,7.56,3.19,7.56,7.17v1.99c-0.4,1.59-0.8,3.58-1.59,5.18
				c-2.39,5.57-5.18,11.14-7.96,16.32c-7.56,15.53-15.13,31.05-21.5,46.97c-0.8,1.2-1.59,3.19-1.59,5.18v0.79
				c2.39-0.79,3.98-2.39,5.57-3.58c6.76-6.37,12.73-13.14,18.31-19.9c15.53-18.31,31.85-35.83,49.77-51.75
				c4.77-4.38,9.55-8.37,14.73-11.95c3.98-2.78,7.96-5.17,12.34-6.37c1.59-0.4,2.79-0.4,3.98-0.4c4.78,0,8.37,2.78,9.56,8.36
				c0.8,3.19,0.8,6.38,0.8,9.95c0,4.38,0,8.76,0.4,13.54c1.59,9.95,7.56,15.92,16.32,19.9c5.18,1.99,10.75,3.19,16.72,3.58h5.97
				c10.35,0,21.1-0.79,31.45-2.78c4.77-1.2,9.56-2.39,13.93-4.78c0.4-0.4,1.2-0.4,1.99-0.79c0.4,0,1.2,0,1.59,0.79v0.8
				c0,0.4,0,0.4-0.4,0.79c-0.8,1.2-2.39,1.99-3.58,2.79c-4.38,1.99-8.76,3.18-13.14,3.98c-11.15,2.39-22.69,3.98-33.84,3.98
				c-3.19,0-5.97-0.4-8.76-0.4c-9.15-0.4-17.11-3.19-24.28-8.76c-5.97-4.38-9.56-10.35-11.55-17.52c-0.79-4.77-1.59-9.56-1.59-13.93
				v-8.36c0-3.19-0.79-4.38-2.78-4.38c-0.8,0-1.59,0-2.39,0.4c-3.98,1.19-7.56,3.18-10.75,5.57c-11.94,8.36-22.69,17.51-33.04,27.47
				c-14.33,13.93-27.07,29.46-40.2,44.58c-2.79,3.58-5.57,6.77-8.76,9.95c-2.39,2.79-5.17,5.18-8.36,6.38
				c-1.2,0.4-1.99,0.4-2.78,0.4c-3.58,0-6.77-2.39-7.56-5.97v-6.37c1.59-9.56,5.17-18.32,9.15-27.07
				c6.38-13.14,13.14-26.28,20.31-39.01c0.79-1.59,1.99-2.79,1.99-4.38C303.35,189.88,302.96,189.88,302.17,189.88z"/>
		</g>
		<circle class="st1" cx="204.07" cy="355.7" r="5.31"/>
		<circle class="st1" cx="117.54" cy="228.91" r="31.07"/>
		<circle class="st1" cx="228.76" cy="147" r="5.31"/>
	</g>
</g>
</svg>
